{"asset":{"version":"2.0","generator":"Blockbench 4.12.6 glTF exporter"},"scenes":[{"nodes":[7],"name":"blockbench_export"}],"scene":0,"nodes":[{"translation":[3,0.4375,2.25],"name":"cuboid","mesh":0},{"translation":[-2.875,0,-1.0625],"name":"Mesa1","children":[0]},{"translation":[1.625,-0.4375,-0.75],"name":"cuboid","mesh":1},{"rotation":[0,0,-0.7071067811865475,0.7071067811865476],"translation":[2.125,-0.125,-0.75],"name":"plane","mesh":2},{"rotation":[0,0,-0.7071067811865475,0.7071067811865476],"translation":[2.125,-0.25,-0.75],"name":"plane","mesh":3},{"rotation":[0,0,-0.7071067811865475,0.7071067811865476],"translation":[2.125,-0.375,-0.75],"name":"plane","mesh":4},{"translation":[-1.5625,0.5,0],"name":"Mesa2","children":[2,3,4,5]},{"children":[1,6]}],"bufferViews":[{"buffer":0,"byteOffset":0,"byteLength":15456,"target":34962,"byteStride":12},{"buffer":0,"byteOffset":15456,"byteLength":15456,"target":34962,"byteStride":12},{"buffer":0,"byteOffset":30912,"byteLength":10304,"target":34962,"byteStride":8},{"buffer":0,"byteOffset":41216,"byteLength":3864,"target":34963},{"buffer":0,"byteOffset":45080,"byteLength":1872,"target":34962,"byteStride":12},{"buffer":0,"byteOffset":46952,"byteLength":1872,"target":34962,"byteStride":12},{"buffer":0,"byteOffset":48824,"byteLength":1248,"target":34962,"byteStride":8},{"buffer":0,"byteOffset":50072,"byteLength":468,"target":34963},{"buffer":0,"byteOffset":50540,"byteLength":96,"target":34962,"byteStride":12},{"buffer":0,"byteOffset":50636,"byteLength":96,"target":34962,"byteStride":12},{"buffer":0,"byteOffset":50732,"byteLength":64,"target":34962,"byteStride":8},{"buffer":0,"byteOffset":50796,"byteLength":24,"target":34963},{"buffer":0,"byteOffset":50820,"byteLength":96,"target":34962,"byteStride":12},{"buffer":0,"byteOffset":50916,"byteLength":96,"target":34962,"byteStride":12},{"buffer":0,"byteOffset":51012,"byteLength":64,"target":34962,"byteStride":8},{"buffer":0,"byteOffset":51076,"byteLength":24,"target":34963},{"buffer":0,"byteOffset":51100,"byteLength":96,"target":34962,"byteStride":12},{"buffer":0,"byteOffset":51196,"byteLength":96,"target":34962,"byteStride":12},{"buffer":0,"byteOffset":51292,"byteLength":64,"target":34962,"byteStride":8},{"buffer":0,"byteOffset":51356,"byteLength":24,"target":34963}],"buffers":[{"byteLength":51380,"uri":"data:application/octet-stream;base64,"}],"accessors":[{"bufferView":0,"componentType":5126,"count":1288,"max":[0.6875,0.0625,0.6875],"min":[-0.6875,-0.375,-0.6875],"type":"VEC3"},{"bufferView":1,"componentType":5126,"count":1288,"max":[1,1,1],"min":[-1,-1,-1],"type":"VEC3"},{"bufferView":2,"componentType":5126,"count":1288,"max":[1.421875,1.40625],"min":[0,0],"type":"VEC2"},{"bufferView":3,"componentType":5123,"count":1932,"max":[1287],"min":[0],"type":"SCALAR"},{"bufferView":4,"componentType":5126,"count":156,"max":[0.5,0.5,0.8125],"min":[-0.5,0,-0.8125],"type":"VEC3"},{"bufferView":5,"componentType":5126,"count":156,"max":[1,1,1],"min":[-1,-1,-1],"type":"VEC3"},{"bufferView":6,"componentType":5126,"count":156,"max":[0.5,0.5],"min":[0,0],"type":"VEC2"},{"bufferView":7,"componentType":5123,"count":234,"max":[155],"min":[0],"type":"SCALAR"},{"bufferView":8,"componentType":5126,"count":8,"max":[0.0625,0,0.5],"min":[-0.0625,-1,-0.5],"type":"VEC3"},{"bufferView":9,"componentType":5126,"count":8,"max":[0,1,0],"min":[0,1,0],"type":"VEC3"},{"bufferView":10,"componentType":5126,"count":8,"max":[0.15625,0.5],"min":[0,0],"type":"VEC2"},{"bufferView":11,"componentType":5123,"count":12,"max":[7],"min":[0],"type":"SCALAR"},{"bufferView":12,"componentType":5126,"count":8,"max":[0.0625,0,0.375],"min":[-0.0625,-1,-0.375],"type":"VEC3"},{"bufferView":13,"componentType":5126,"count":8,"max":[0,1,0],"min":[0,1,0],"type":"VEC3"},{"bufferView":14,"componentType":5126,"count":8,"max":[0.34375,0.375],"min":[0.1875,0],"type":"VEC2"},{"bufferView":15,"componentType":5123,"count":12,"max":[7],"min":[0],"type":"SCALAR"},{"bufferView":16,"componentType":5126,"count":8,"max":[0,0,0.3125],"min":[-0.0625,-1,-0.3125],"type":"VEC3"},{"bufferView":17,"componentType":5126,"count":8,"max":[0,1,0],"min":[0,1,0],"type":"VEC3"},{"bufferView":18,"componentType":5126,"count":8,"max":[0.40625,0.59375],"min":[0.375,0],"type":"VEC2"},{"bufferView":19,"componentType":5123,"count":12,"max":[7],"min":[0],"type":"SCALAR"}],"materials":[{"pbrMetallicRoughness":{"metallicFactor":0,"roughnessFactor":1},"alphaMode":"MASK","alphaCutoff":0.05,"doubleSided":true},{"pbrMetallicRoughness":{"metallicFactor":0,"roughnessFactor":1},"alphaMode":"MASK","alphaCutoff":0.05,"doubleSided":true},{"pbrMetallicRoughness":{"metallicFactor":0,"roughnessFactor":1},"alphaMode":"MASK","alphaCutoff":0.05,"doubleSided":true}],"meshes":[{"primitives":[{"mode":4,"attributes":{"POSITION":0,"NORMAL":1,"TEXCOORD_0":2},"indices":3,"material":0}]},{"primitives":[{"mode":4,"attributes":{"POSITION":4,"NORMAL":5,"TEXCOORD_0":6},"indices":7,"material":1}]},{"primitives":[{"mode":4,"attributes":{"POSITION":8,"NORMAL":9,"TEXCOORD_0":10},"indices":11,"material":2}]},{"primitives":[{"mode":4,"attributes":{"POSITION":12,"NORMAL":13,"TEXCOORD_0":14},"indices":15,"material":2}]},{"primitives":[{"mode":4,"attributes":{"POSITION":16,"NORMAL":17,"TEXCOORD_0":18},"indices":19,"material":2}]}]}