{"asset":{"version":"2.0","generator":"Blockbench 4.12.6 glTF exporter"},"scenes":[{"nodes":[1],"name":"blockbench_export"}],"scene":0,"nodes":[{"translation":[0,-0.375,0],"name":"cuboid","mesh":0},{"children":[0]}],"bufferViews":[{"buffer":0,"byteOffset":0,"byteLength":5232,"target":34962,"byteStride":12},{"buffer":0,"byteOffset":5232,"byteLength":5232,"target":34962,"byteStride":12},{"buffer":0,"byteOffset":10464,"byteLength":3488,"target":34962,"byteStride":8},{"buffer":0,"byteOffset":13952,"byteLength":1308,"target":34963}],"buffers":[{"byteLength":15260,"uri":"data:application/octet-stream;base64,"}],"accessors":[{"bufferView":0,"componentType":5126,"count":436,"max":[1.25,1.9375,1.1875],"min":[-1.25,0.4375,-1.1875],"type":"VEC3"},{"bufferView":1,"componentType":5126,"count":436,"max":[1,1,1],"min":[-1,-1,-1],"type":"VEC3"},{"bufferView":2,"componentType":5126,"count":436,"max":[0.9268370866775513,0.7514452934265137],"min":[0,0],"type":"VEC2"},{"bufferView":3,"componentType":5123,"count":654,"max":[435],"min":[0],"type":"SCALAR"}],"materials":[{"pbrMetallicRoughness":{"metallicFactor":0,"roughnessFactor":1},"alphaMode":"MASK","alphaCutoff":0.05,"doubleSided":true}],"meshes":[{"primitives":[{"mode":4,"attributes":{"POSITION":0,"NORMAL":1,"TEXCOORD_0":2},"indices":3,"material":0}]}]}