{"asset":{"version":"2.0","generator":"Blockbench 4.12.6 glTF exporter"},"scenes":[{"nodes":[2],"name":"blockbench_export"}],"scene":0,"nodes":[{"translation":[0,-0.375,0],"name":"cuboid","mesh":0},{"translation":[0,1.25,0],"name":"pyramid","mesh":1},{"children":[0,1]}],"bufferViews":[{"buffer":0,"byteOffset":0,"byteLength":5040,"target":34962,"byteStride":12},{"buffer":0,"byteOffset":5040,"byteLength":5040,"target":34962,"byteStride":12},{"buffer":0,"byteOffset":10080,"byteLength":3360,"target":34962,"byteStride":8},{"buffer":0,"byteOffset":13440,"byteLength":1260,"target":34963},{"buffer":0,"byteOffset":14700,"byteLength":384,"target":34962,"byteStride":12},{"buffer":0,"byteOffset":15084,"byteLength":384,"target":34962,"byteStride":12},{"buffer":0,"byteOffset":15468,"byteLength":256,"target":34962,"byteStride":8},{"buffer":0,"byteOffset":15724,"byteLength":96,"target":34963}],"buffers":[{"byteLength":15820,"uri":"data:application/octet-stream;base64,"}],"accessors":[{"bufferView":0,"componentType":5126,"count":420,"max":[1.25,1.8092106580734253,1.1875],"min":[-1.25,0.4375,-1.1875],"type":"VEC3"},{"bufferView":1,"componentType":5126,"count":420,"max":[1,1,1],"min":[-1,-1,-1],"type":"VEC3"},{"bufferView":2,"componentType":5126,"count":420,"max":[0.9268370866775513,0.7514452934265137],"min":[0,0],"type":"VEC2"},{"bufferView":3,"componentType":5123,"count":630,"max":[419],"min":[0],"type":"SCALAR"},{"bufferView":4,"componentType":5126,"count":32,"max":[1.1875,0.3125,1.125],"min":[-1.1875,-0.0625,-1.125],"type":"VEC3"},{"bufferView":5,"componentType":5126,"count":32,"max":[0.5339930057525635,1,0.5547001957893372],"min":[-0.5339930057525635,-1,-0.5547001957893372],"type":"VEC3"},{"bufferView":6,"componentType":5126,"count":32,"max":[0.140625,0.140625],"min":[0,0],"type":"VEC2"},{"bufferView":7,"componentType":5123,"count":48,"max":[31],"min":[0],"type":"SCALAR"}],"materials":[{"pbrMetallicRoughness":{"metallicFactor":0,"roughnessFactor":1},"alphaMode":"MASK","alphaCutoff":0.05,"doubleSided":true},{"pbrMetallicRoughness":{"metallicFactor":0,"roughnessFactor":1},"alphaMode":"MASK","alphaCutoff":0.05,"doubleSided":true}],"meshes":[{"primitives":[{"mode":4,"attributes":{"POSITION":0,"NORMAL":1,"TEXCOORD_0":2},"indices":3,"material":0}]},{"primitives":[{"mode":4,"attributes":{"POSITION":4,"NORMAL":5,"TEXCOORD_0":6},"indices":7,"material":1}]}]}