{"asset":{"version":"2.0","generator":"Blockbench 4.12.6 glTF exporter"},"scenes":[{"nodes":[1],"name":"blockbench_export"}],"scene":0,"nodes":[{"name":"cuboid","mesh":0},{"children":[0]}],"bufferViews":[{"buffer":0,"byteOffset":0,"byteLength":5556,"target":34962,"byteStride":12},{"buffer":0,"byteOffset":5556,"byteLength":5556,"target":34962,"byteStride":12},{"buffer":0,"byteOffset":11112,"byteLength":3704,"target":34962,"byteStride":8},{"buffer":0,"byteOffset":14816,"byteLength":1376,"target":34963}],"buffers":[{"byteLength":16192,"uri":"data:application/octet-stream;base64,"}],"accessors":[{"bufferView":0,"componentType":5126,"count":463,"max":[1.5441943407058716,0.625,1.6066943407058716],"min":[-1.5441943407058716,-0.03125,-1.6066943407058716],"type":"VEC3"},{"bufferView":1,"componentType":5126,"count":463,"max":[1,1,1],"min":[-1,-1,-1],"type":"VEC3"},{"bufferView":2,"componentType":5126,"count":463,"max":[0.8033109307289124,0.8359375],"min":[0,0],"type":"VEC2"},{"bufferView":3,"componentType":5123,"count":687,"max":[462],"min":[0],"type":"SCALAR"}],"materials":[{"pbrMetallicRoughness":{"metallicFactor":0,"roughnessFactor":1},"alphaMode":"MASK","alphaCutoff":0.05,"doubleSided":true}],"meshes":[{"primitives":[{"mode":4,"attributes":{"POSITION":0,"NORMAL":1,"TEXCOORD_0":2},"indices":3,"material":0}]}]}