{"asset":{"version":"2.0","generator":"Blockbench 4.12.6 glTF exporter"},"scenes":[{"nodes":[4],"name":"blockbench_export"}],"scene":0,"nodes":[{"name":"cuboid","mesh":0},{"translation":[-1,0,0],"name":"Mesa1","children":[0]},{"translation":[2.4375,-0.0625,0.0625],"name":"cuboid","mesh":1},{"translation":[-1.5625,0.5,0],"name":"Mesa2","children":[2]},{"children":[1,3]}],"bufferViews":[{"buffer":0,"byteOffset":0,"byteLength":2160,"target":34962,"byteStride":12},{"buffer":0,"byteOffset":2160,"byteLength":2160,"target":34962,"byteStride":12},{"buffer":0,"byteOffset":4320,"byteLength":1440,"target":34962,"byteStride":8},{"buffer":0,"byteOffset":5760,"byteLength":540,"target":34963},{"buffer":0,"byteOffset":6300,"byteLength":15456,"target":34962,"byteStride":12},{"buffer":0,"byteOffset":21756,"byteLength":15456,"target":34962,"byteStride":12},{"buffer":0,"byteOffset":37212,"byteLength":10304,"target":34962,"byteStride":8},{"buffer":0,"byteOffset":47516,"byteLength":3864,"target":34963}],"buffers":[{"byteLength":51380,"uri":"data:application/octet-stream;base64,"}],"accessors":[{"bufferView":0,"componentType":5126,"count":180,"max":[0.75,0.625,0.8125],"min":[-0.75,-0.125,-0.8125],"type":"VEC3"},{"bufferView":1,"componentType":5126,"count":180,"max":[1,1,1],"min":[-1,-1,-1],"type":"VEC3"},{"bufferView":2,"componentType":5126,"count":180,"max":[0.25,0.25],"min":[0,0],"type":"VEC2"},{"bufferView":3,"componentType":5123,"count":270,"max":[179],"min":[0],"type":"SCALAR"},{"bufferView":4,"componentType":5126,"count":1288,"max":[0.75,0.125,0.75],"min":[-0.75,-0.4375,-0.75],"type":"VEC3"},{"bufferView":5,"componentType":5126,"count":1288,"max":[1,1,1],"min":[-1,-1,-1],"type":"VEC3"},{"bufferView":6,"componentType":5126,"count":1288,"max":[0.765625,0.59375],"min":[0,0],"type":"VEC2"},{"bufferView":7,"componentType":5123,"count":1932,"max":[1287],"min":[0],"type":"SCALAR"}],"materials":[{"pbrMetallicRoughness":{"metallicFactor":0,"roughnessFactor":1},"alphaMode":"MASK","alphaCutoff":0.05,"doubleSided":true},{"pbrMetallicRoughness":{"metallicFactor":0,"roughnessFactor":1},"alphaMode":"MASK","alphaCutoff":0.05,"doubleSided":true}],"meshes":[{"primitives":[{"mode":4,"attributes":{"POSITION":0,"NORMAL":1,"TEXCOORD_0":2},"indices":3,"material":0}]},{"primitives":[{"mode":4,"attributes":{"POSITION":4,"NORMAL":5,"TEXCOORD_0":6},"indices":7,"material":1}]}]}