{
	"asset":{
		"generator":"Khronos glTF Blender I/O v4.0.44",
		"version":"2.0"
	},
	"scene":0,
	"scenes":[
		{
			"name":"Scene",
			"nodes":[
				0,
				1
			]
		}
	],
	"nodes":[
		{
			"mesh":0,
			"name":"Tampa_couro.001"
		},
		{
			"name":"Tampa.002"
		}
	],
	"meshes":[
		{
			"name":"Cube.003",
			"primitives":[
				{
					"attributes":{
						"POSITION":0,
						"NORMAL":1,
						"TEXCOORD_0":2
					},
					"indices":3
				}
			]
		}
	],
	"accessors":[
		{
			"bufferView":0,
			"componentType":5126,
			"count":2658,
			"max":[
				0.23537833988666534,
				1.1797363758087158,
				1.0316228866577148
			],
			"min":[
				-0.21910244226455688,
				-0.7814206480979919,
				-1.0316522121429443
			],
			"type":"VEC3"
		},
		{
			"bufferView":1,
			"componentType":5126,
			"count":2658,
			"type":"VEC3"
		},
		{
			"bufferView":2,
			"componentType":5126,
			"count":2658,
			"type":"VEC2"
		},
		{
			"bufferView":3,
			"componentType":5123,
			"count":10602,
			"type":"SCALAR"
		}
	],
	"bufferViews":[
		{
			"buffer":0,
			"byteLength":31896,
			"byteOffset":0,
			"target":34962
		},
		{
			"buffer":0,
			"byteLength":31896,
			"byteOffset":31896,
			"target":34962
		},
		{
			"buffer":0,
			"byteLength":21264,
			"byteOffset":63792,
			"target":34962
		},
		{
			"buffer":0,
			"byteLength":21204,
			"byteOffset":85056,
			"target":34963
		}
	],
	"buffers":[
		{
			"byteLength":106260,
			"uri":"Maleta_prota9.bin"
		}
	]
}
